#define wireless_high_width 16
#define wireless_high_height 16

static unsigned char wireless_high_bits[] = {
  0x00, 0x00, 0x00, 0x00, 0x00, 0x00, 0x00, 0x00, 0xf0, 0x0f, 0x08, 0x10, 
  0xe0, 0x07, 0x10, 0x08, 0xc0, 0x03, 0x20, 0x04, 0x80, 0x01, 0x80, 0x01, 
  0x00, 0x00, 0x00, 0x00, 0x00, 0x00, 0x00, 0x00 };
